<svg width="72" height="72" viewBox="0 0 72 72" fill="none" xmlns="http://www.w3.org/2000/svg">
  <path d="M21 14V27C21 35.2843 27.7157 42 36 42C44.2843 42 51 35.2843 51 27V14" stroke="#F8F1FC" stroke-width="3.5" stroke-linecap="round" stroke-linejoin="round"/>
  <path d="M28 20V27C28 31.4183 31.5817 35 36 35C40.4183 35 44 31.4183 44 27V20" stroke="#F8F1FC" stroke-width="3.5" stroke-linecap="round" stroke-linejoin="round"/>
  <path d="M13 27L21 35" stroke="#F8F1FC" stroke-width="3.5" stroke-linecap="round"/>
  <path d="M59 27L51 35" stroke="#F8F1FC" stroke-width="3.5" stroke-linecap="round"/>
  <path d="M18 22V34.5C18 44.165 25.835 52 35.5 52H36.5C46.165 52 54 44.165 54 34.5V22" stroke="#F8F1FC" stroke-width="3.5" stroke-linecap="round" stroke-linejoin="round"/>
  <path d="M36 42V58" stroke="#F8F1FC" stroke-width="3.5" stroke-linecap="round"/>
  <path d="M28 58H44" stroke="#F8F1FC" stroke-width="3.5" stroke-linecap="round"/>
</svg>
