<svg width="100" height="100" viewBox="0 0 100 100" fill="none" xmlns="http://www.w3.org/2000/svg">
  <path d="M50 18C32.3269 18 18 32.1022 18 49.5C18 55.7918 19.879 61.6505 23.1111 66.566L19 82L34.8898 77.9637C39.422 80.5779 44.6926 82 50 82C67.6731 82 82 67.8978 82 50.5C82 33.1022 67.6731 18 50 18Z" fill="#F8F1FC" fill-opacity="0.14" stroke="#F8F1FC" stroke-width="4" stroke-linejoin="round"/>
  <path d="M39.6485 35.5C38.3352 35.5 37.2362 36.3539 36.8467 37.6034C35.8459 40.8128 36.6221 45.3257 40.5967 50.0551C44.5807 54.7956 48.8769 57.6688 52.1689 58.4594C53.4511 58.7674 54.7752 58.3167 55.594 57.2438L58.3706 53.6048L52.8757 50.25L51.1561 52.2956C50.8739 52.6313 50.4077 52.7578 49.9931 52.6093C48.1466 51.9478 45.5297 50.0141 43.3632 47.4363C41.2065 44.8703 39.8792 41.9514 39.5113 40.0072C39.4281 39.5674 39.5901 39.1187 39.9378 38.8567L42.0699 37.25L38.5721 31.9431L35.8249 34.2471" stroke="#F8F1FC" stroke-width="4" stroke-linecap="round" stroke-linejoin="round"/>
</svg>
